<svg width="529" height="718" xmlns="http://www.w3.org/2000/svg" xmlns:xlink="http://www.w3.org/1999/xlink" overflow="hidden"><defs><clipPath id="clip0"><rect x="0" y="0" width="529" height="718"/></clipPath></defs><g clip-path="url(#clip0)"><rect x="0" y="0" width="529" height="718.06" fill="#FFFFFF"/><rect x="106" y="19.0016" width="123" height="39.0032" stroke="#FFFFFF" stroke-width="1.99937" stroke-miterlimit="8"/><text fill="#FFFFFF" font-family="Calibri,Calibri_MSFontService,sans-serif" font-weight="400" font-size="24" transform="matrix(1 0 0 1.00008 151.447 46)">Init</text><path d="M78.5 104.509 168 81.5068 257.5 104.509 168 127.511Z" stroke="#000000" stroke-width="1.33291" stroke-miterlimit="8" fill="#FFFFFF" fill-rule="evenodd"/><text font-family="Calibri,Calibri_MSFontService,sans-serif" font-weight="400" font-size="13" transform="matrix(1 0 0 1.00008 139.617 108)">Lua error?</text><path d="M78.5 237.52 168 214.518 257.5 237.52 168 260.522Z" stroke="#000000" stroke-width="1.33291" stroke-miterlimit="8" fill="#FFFFFF" fill-rule="evenodd"/><text font-family="Calibri,Calibri_MSFontService,sans-serif" font-weight="400" font-size="13" transform="matrix(1 0 0 1.00008 139.617 241)">Lua error?</text><path d="M78.5 309.526 168 286.524 257.5 309.526 168 332.528Z" stroke="#000000" stroke-width="1.33291" stroke-miterlimit="8" fill="#FFFFFF" fill-rule="evenodd"/><text font-family="Calibri,Calibri_MSFontService,sans-serif" font-weight="400" font-size="13" transform="matrix(1 0 0 1.00008 145.452 305)">Request</text><text font-family="Calibri,Calibri_MSFontService,sans-serif" font-weight="400" font-size="13" transform="matrix(1 0 0 1.00008 138.867 322)">complete?</text><path d="M169.166 58.5048 169.167 74.4692 167.834 74.4692 167.834 58.5048ZM172.499 73.1362 168.5 81.1343 164.501 73.1362Z"/><path d="M257.5 103.842 441.049 103.842 441.049 642.355 439.716 642.355 439.716 104.509 440.382 105.175 257.5 105.175ZM444.381 641.022 440.382 649.021 436.384 641.022Z"/><rect x="106" y="151.013" width="123" height="40.0033" stroke="#FFFFFF" stroke-width="1.99937" stroke-miterlimit="8"/><text fill="#FFFFFF" font-family="Calibri,Calibri_MSFontService,sans-serif" font-weight="400" font-size="24" transform="matrix(1 0 0 1.00008 151.357 179)">Pre</text><rect x="106" y="360.03" width="123" height="40.0033" stroke="#FFFFFF" stroke-width="1.99937" stroke-miterlimit="8"/><text fill="#FFFFFF" font-family="Calibri,Calibri_MSFontService,sans-serif" font-weight="400" font-size="24" transform="matrix(1 0 0 1.00008 142.449 388)">Main</text><path d="M169.166 127.511 169.167 145.239 167.834 145.239 167.834 127.511ZM172.499 143.906 168.5 151.904 164.501 143.906Z"/><path d="M78.5 452.037 168 429.536 257.5 452.037 168 474.539Z" stroke="#000000" stroke-width="1.33291" stroke-miterlimit="8" fill="#FFFFFF" fill-rule="evenodd"/><text font-family="Calibri,Calibri_MSFontService,sans-serif" font-weight="400" font-size="13" transform="matrix(1 0 0 1.00008 139.617 456)">Lua error?</text><path d="M169.166 191.516 169.167 208.307 167.834 208.307 167.834 191.516ZM172.499 206.974 168.5 214.973 164.501 206.974Z"/><rect x="106" y="503.042" width="123" height="40.0034" stroke="#FFFFFF" stroke-width="1.99937" stroke-miterlimit="8"/><text fill="#FFFFFF" font-family="Calibri,Calibri_MSFontService,sans-serif" font-weight="400" font-size="24" transform="matrix(1 0 0 1.00008 146.738 531)">Post</text><rect x="106" y="648.054" width="123" height="40.0033" stroke="#FFFFFF" stroke-width="1.99937" stroke-miterlimit="8"/><text fill="#FFFFFF" font-family="Calibri,Calibri_MSFontService,sans-serif" font-weight="400" font-size="24" transform="matrix(1 0 0 1.00008 130.203 676)">Success</text><path d="M257.5 236.853 441.049 236.853 441.049 642.055 439.716 642.055 439.716 237.52 440.382 238.186 257.5 238.186ZM444.381 640.721 440.382 648.72 436.383 640.721Z"/><path d="M257.5 450.871 441.049 450.871 441.049 641.806 439.716 641.806 439.716 451.537 440.382 452.204 257.5 452.204ZM444.381 640.473 440.382 648.471 436.383 640.473Z"/><path d="M0.666457-5.32418e-06 0.666613 19.6107-0.6663 19.6107-0.666457 5.32418e-06ZM3.99889 18.2778 0.000209908 26.2753-3.99859 18.2778Z" transform="matrix(-1 0 0 1.00008 168.5 260.522)"/><path d="M169.166 332.528 169.167 354.267 167.834 354.267 167.834 332.528ZM172.499 352.933 168.5 360.932 164.501 352.934Z"/><path d="M169.166 400.533 169.167 422.272 167.834 422.272 167.834 400.533ZM172.499 420.939 168.5 428.937 164.501 420.939Z"/><path d="M78.5 310.192 36.4486 310.192 37.115 309.526 37.115 523.6 36.4486 522.934 99.8078 522.934 99.8078 524.267 35.7821 524.267 35.7821 308.859 78.5 308.859ZM98.4749 519.601 106.472 523.6 98.4749 527.599Z"/><path d="M0.666457-4.81205e-06 0.666618 22.4071-0.666295 22.4071-0.666457 4.81205e-06ZM3.99889 21.0742 0.000209908 29.0717-3.99859 21.0742Z" transform="matrix(-1 0 0 1.00008 168.5 474.539)"/><text font-family="Calibri,Calibri_MSFontService,sans-serif" font-weight="400" font-size="13" transform="matrix(1 0 0 1.00008 266.357 121)">Yes</text><text font-family="Calibri,Calibri_MSFontService,sans-serif" font-weight="400" font-size="13" transform="matrix(1 0 0 1.00008 266.357 255)">Yes</text><text font-family="Calibri,Calibri_MSFontService,sans-serif" font-weight="400" font-size="13" transform="matrix(1 0 0 1.00008 266.357 469)">Yes</text><text font-family="Calibri,Calibri_MSFontService,sans-serif" font-weight="400" font-size="13" transform="matrix(1 0 0 1.00008 182.796 141)">No</text><text font-family="Calibri,Calibri_MSFontService,sans-serif" font-weight="400" font-size="13" transform="matrix(1 0 0 1.00008 182.796 277)">No</text><text font-family="Calibri,Calibri_MSFontService,sans-serif" font-weight="400" font-size="13" transform="matrix(1 0 0 1.00008 182.95 490)">No</text><text font-family="Calibri,Calibri_MSFontService,sans-serif" font-weight="400" font-size="13" transform="matrix(1 0 0 1.00008 182.315 347)">No</text><text font-family="Calibri,Calibri_MSFontService,sans-serif" font-weight="400" font-size="13" transform="matrix(1 0 0 1.00008 46.7611 329)">Yes</text><path d="M169.166 543.545 169.167 560.497 167.834 560.497 167.834 543.545ZM172.499 559.164 168.5 567.162 164.501 559.164Z"/><rect x="378" y="648.054" width="124" height="40.0033" stroke="#FFFFFF" stroke-width="1.99937" stroke-miterlimit="8"/><text fill="#FFFFFF" font-family="Calibri,Calibri_MSFontService,sans-serif" font-weight="400" font-size="24" transform="matrix(1 0 0 1.00008 412.382 676)">Abort</text><text font-family="Calibri,Calibri_MSFontService,sans-serif" font-weight="400" font-size="13" transform="matrix(1 0 0 1.00008 238.865 177)">(optional)</text><text font-family="Calibri,Calibri_MSFontService,sans-serif" font-weight="400" font-size="13" transform="matrix(1 0 0 1.00008 238.865 527)">(optional)</text><text font-family="Calibri,Calibri_MSFontService,sans-serif" font-weight="400" font-size="13" transform="matrix(1 0 0 1.00008 238.866 43)">(optional, once)</text><path d="M78.5 590.049 168 567.547 257.5 590.049 168 612.551Z" stroke="#000000" stroke-width="1.33291" stroke-miterlimit="8" fill="#FFFFFF" fill-rule="evenodd"/><text font-family="Calibri,Calibri_MSFontService,sans-serif" font-weight="400" font-size="13" transform="matrix(1 0 0 1.00008 139.617 594)">Lua error?</text><text font-family="Calibri,Calibri_MSFontService,sans-serif" font-weight="400" font-size="13" transform="matrix(1 0 0 1.00008 266.357 607)">Yes</text><text font-family="Calibri,Calibri_MSFontService,sans-serif" font-weight="400" font-size="13" transform="matrix(1 0 0 1.00008 182.95 628)">No</text><path d="M169.166 612.551 169.167 641.739 167.834 641.739 167.834 612.551ZM172.499 640.405 168.5 648.404 164.501 640.406Z"/><path d="M257.5 589.883 441.049 589.883 441.049 642.665 439.716 642.665 439.716 590.549 440.382 591.216 257.5 591.216ZM444.381 641.332 440.382 649.33 436.384 641.332Z"/></g></svg>